<svg width="199" height="44" viewBox="0 0 199 44" fill="none" xmlns="http://www.w3.org/2000/svg">
<path d="M15.089 13.3502C14.621 14.6439 14.148 15.9623 13.6703 17.3066C13.1919 18.6505 12.7293 19.9747 12.2822 21.2777C11.8342 22.5814 11.4476 23.7422 11.1228 24.7605C10.6548 24.7191 10.1359 24.699 9.5668 24.699H8.77318C8.50851 24.699 8.24423 24.7191 7.97994 24.7605C7.75578 23.9253 7.46141 22.846 7.09527 21.5222C6.72913 20.1984 6.33213 18.793 5.90541 17.3066C5.47793 15.8202 5.04042 14.3179 4.59326 12.8009C4.14571 11.2836 3.72865 9.89368 3.34245 8.6309C2.95586 7.36812 2.63023 6.29384 2.36595 5.40769C2.10128 4.52193 1.92843 3.97764 1.84741 3.77368C2.29457 3.81463 2.73209 3.84978 3.15957 3.88068C3.58628 3.9112 4.00335 3.92665 4.41038 3.92665C4.81703 3.92665 5.22869 3.9112 5.64576 3.88068C6.06244 3.84978 6.47449 3.81463 6.88153 3.77368C7.18709 5.07703 7.51195 6.41591 7.85803 7.79033C8.20372 9.16514 8.55442 10.5202 8.91091 11.8537C9.26625 13.188 9.61271 14.4809 9.94799 15.7332C10.2836 16.9856 10.5935 18.1418 10.8786 19.2006H10.9395C11.3867 17.9173 11.8701 16.5275 12.3887 15.0306C12.9076 13.5337 13.4111 12.0673 13.8991 10.6315C14.3872 9.19566 14.8347 7.87222 15.2418 6.66043C15.648 5.44902 15.9632 4.48677 16.1874 3.77368C16.4513 3.81463 16.7063 3.84978 16.9501 3.88068C17.1944 3.9112 17.4482 3.92665 17.7129 3.92665C17.9768 3.92665 18.2318 3.9112 18.4757 3.88068C18.7199 3.84978 18.9737 3.81463 19.2384 3.77368C19.3198 4.22178 19.4722 4.82246 19.696 5.57573C19.9198 6.32938 20.179 7.16454 20.4742 8.08082C20.7686 8.9971 21.0841 9.96476 21.4198 10.983C21.7555 12.0017 22.0915 13.0095 22.4272 14.0073C22.7624 15.0051 23.0723 15.9523 23.3574 16.8481C23.6421 17.7447 23.8759 18.5284 24.0592 19.2006H24.1201C24.5268 17.9173 24.9593 16.5023 25.4169 14.9541C25.8748 13.407 26.317 11.9097 26.7441 10.4635C27.1712 9.01796 27.5574 7.69453 27.9034 6.4924C28.2491 5.29103 28.493 4.38441 28.6357 3.77368C29.1438 3.87566 29.5713 3.92665 29.917 3.92665C30.1408 3.92665 30.3696 3.9112 30.6034 3.88068C30.8372 3.84978 31.0768 3.81463 31.3206 3.77368C31.1782 4.16074 30.9545 4.79233 30.6493 5.66766C30.3445 6.54339 29.9884 7.5771 29.5813 8.76842C29.1747 9.95974 28.7372 11.2577 28.2696 12.663C27.8016 14.0683 27.334 15.4841 26.866 16.9095C26.398 18.3349 25.9454 19.7302 25.5083 21.0946C25.0708 22.4589 24.6896 23.6808 24.364 24.7605C23.896 24.7191 23.3774 24.699 22.808 24.699H22.0151C21.7505 24.699 21.4858 24.7191 21.2219 24.7605C20.5702 22.2758 19.8337 19.8067 19.0096 17.3522C18.1859 14.8985 17.3163 12.3988 16.4007 9.85274H16.3402C15.974 10.8915 15.5566 12.0573 15.089 13.3502Z" fill="white"></path>
<path d="M40.8101 16.0848C40.7692 14.557 40.5813 13.3352 40.2457 12.4189C39.91 11.5022 39.3456 11.0441 38.5523 11.0441C38.1048 11.0441 37.7286 11.1971 37.4238 11.5022C37.1183 11.8078 36.8744 12.2003 36.6915 12.6785C36.5083 13.1571 36.3709 13.6971 36.2795 14.2974C36.1881 14.8985 36.1317 15.4938 36.1117 16.0848H40.8101ZM36.1117 17.4592C36.1117 18.2739 36.1927 19.0376 36.3559 19.7507C36.5179 20.4634 36.7676 21.0792 37.1032 21.5987C37.4385 22.1179 37.866 22.5254 38.3845 22.8206C38.9034 23.1161 39.5084 23.2632 40.2002 23.2632C41.6034 23.2632 42.8546 22.8051 43.953 21.8888L44.3191 22.1639L43.6478 23.8744C43.1389 24.2614 42.5289 24.5724 41.8171 24.8061C41.1049 25.0398 40.1697 25.1572 39.0099 25.1572C38.0134 25.1572 37.0673 25.0197 36.1726 24.7451C35.2772 24.47 34.4893 24.0169 33.808 23.3857C33.1262 22.7545 32.5872 21.9549 32.191 20.9876C31.794 20.0207 31.5957 18.8646 31.5957 17.5203C31.5957 16.1964 31.774 15.0461 32.1297 14.0684C32.4854 13.0911 32.9789 12.2764 33.61 11.6243C34.2401 10.9726 34.9874 10.484 35.8524 10.1583C36.7166 9.83269 37.6569 9.66968 38.6743 9.66968C40.6882 9.66968 42.2292 10.2603 43.2971 11.4412C44.365 12.6225 44.8986 14.2928 44.8986 16.4514V17.0926C44.8986 17.2761 44.8878 17.3982 44.8681 17.4592H36.1117Z" fill="white"></path>
<path d="M54.8453 20.1169C54.8453 19.2416 54.8499 18.5741 54.8603 18.1159C54.8708 17.6582 54.8758 17.256 54.8758 16.9095C54.4483 17.1537 53.9957 17.3522 53.5181 17.5048C53.0397 17.6582 52.6026 17.8513 52.2059 18.0854C51.8093 18.3199 51.4837 18.6405 51.2298 19.048C50.9752 19.4552 50.8483 20.0458 50.8483 20.8196C50.8483 21.5732 51.0053 22.1484 51.3209 22.5455C51.6361 22.9426 52.0582 23.1412 52.5871 23.1412C53.2584 23.1412 53.8028 22.887 54.2199 22.3775C54.6362 21.8687 54.8453 21.1151 54.8453 20.1169ZM47.6144 11.8078C48.4686 11.1156 49.3887 10.586 50.3752 10.219C51.3618 9.85278 52.3433 9.66968 53.3198 9.66968C54.1327 9.66968 54.8804 9.76123 55.5621 9.94433C56.2435 10.1278 56.833 10.4179 57.3319 10.815C57.8296 11.2121 58.2166 11.7267 58.4913 12.3575C58.7656 12.9891 58.9033 13.7528 58.9033 14.649C58.9033 15.9523 58.8879 17.1591 58.8574 18.2689C58.8269 19.3787 58.8115 20.4835 58.8115 21.5833C58.8115 22.0719 58.8466 22.454 58.9184 22.7286C58.9893 23.0037 59.0962 23.2126 59.239 23.3552C59.3806 23.4977 59.5688 23.5897 59.803 23.6298C60.0364 23.6712 60.3069 23.6913 60.6117 23.6913V24.4244C60.0214 24.6686 59.5233 24.8521 59.1163 24.9741C58.7096 25.0966 58.2725 25.1572 57.8045 25.1572C57.0518 25.1572 56.4414 24.9741 55.9742 24.6075C55.5058 24.2409 55.1501 23.7117 54.9063 23.0191C54.4383 23.6712 53.8939 24.1903 53.2739 24.577C52.6531 24.9637 51.8749 25.1572 50.9401 25.1572C50.1665 25.1572 49.506 25.0552 48.9566 24.8521C48.4072 24.6485 47.9546 24.3584 47.5989 23.9814C47.2428 23.6047 46.9835 23.1771 46.8207 22.6985C46.6575 22.2199 46.5769 21.7359 46.5769 21.2472C46.5769 20.5754 46.6834 19.9948 46.8971 19.5062C47.1109 19.0171 47.4157 18.5999 47.8127 18.2534C48.2089 17.9077 48.6823 17.6172 49.2309 17.3827C49.7803 17.149 50.4003 16.9501 51.0925 16.7875C51.9467 16.5839 52.6226 16.4054 53.1211 16.2528C53.6196 16.0999 53.9907 15.9469 54.2349 15.7943C54.4788 15.6417 54.6362 15.4737 54.708 15.2902C54.7789 15.1071 54.8144 14.8831 54.8144 14.6181C54.8144 13.8849 54.5556 13.2587 54.0366 12.7395C53.5181 12.2204 52.8009 11.9604 51.8857 11.9604C51.5393 11.9604 51.1839 12.0063 50.8178 12.0983C50.4513 12.1898 50.1005 12.3173 49.7649 12.4796C49.4292 12.643 49.1244 12.821 48.8501 13.0142C48.575 13.2081 48.3667 13.4167 48.2243 13.6407H48.011L47.6144 11.8078Z" fill="white"></path>
<path d="M63.2356 6.79797C63.1943 5.12842 63.1334 3.43724 63.0527 1.72675C63.3162 1.76808 63.6519 1.80323 64.0593 1.83375C64.466 1.86465 64.8931 1.87933 65.341 1.87933C65.7878 1.87933 66.2153 1.86465 66.6223 1.83375C67.0286 1.80323 67.3642 1.76808 67.6289 1.72675C67.5475 3.43724 67.4865 5.12842 67.446 6.79797C67.4051 8.4679 67.3851 10.3009 67.3851 12.2964V14.2823C67.3851 16.2783 67.4051 18.1113 67.446 19.7808C67.4865 21.4511 67.5475 23.1106 67.6289 24.7605C67.3642 24.7191 67.0286 24.6991 66.6223 24.6991H64.0593C63.6519 24.6991 63.3162 24.7191 63.0527 24.7605C63.1334 23.1106 63.1943 21.4511 63.2356 19.7808C63.2761 18.1113 63.2966 16.2783 63.2966 14.2823V12.2964C63.2966 10.3009 63.2761 8.4679 63.2356 6.79797Z" fill="white"></path>
<path d="M79.1316 11.0441C79.1316 11.3091 79.1621 11.5637 79.2231 11.8078L76.5382 11.7468C76.4973 12.2157 76.4618 12.755 76.4313 13.3657C76.4012 13.9768 76.3804 14.5984 76.3704 15.2296C76.3599 15.8608 76.3499 16.4719 76.3399 17.0621C76.3295 17.6528 76.3244 18.1518 76.3244 18.559C76.3244 19.6182 76.3499 20.4734 76.4012 21.1251C76.4518 21.7772 76.5382 22.2759 76.6601 22.622C76.782 22.9685 76.9549 23.2026 77.179 23.3247C77.4024 23.4467 77.6871 23.5078 78.0332 23.5078C78.4194 23.5078 78.7041 23.4823 78.8874 23.4313C79.0707 23.3807 79.2535 23.3046 79.4368 23.2026V24.4546C79.0298 24.638 78.5213 24.8007 77.9113 24.9436C77.3009 25.0858 76.701 25.1572 76.1111 25.1572C73.5277 25.1572 72.2363 23.6097 72.2363 20.514C72.2363 19.9238 72.246 19.2566 72.2668 18.5134C72.2869 17.7698 72.3123 17.0065 72.3428 16.2219C72.3737 15.4381 72.3988 14.664 72.4196 13.9003C72.4393 13.1366 72.4497 12.4293 72.4497 11.7773L70.3142 11.8078C70.3748 11.5637 70.4056 11.3091 70.4056 11.0441C70.4056 10.7996 70.3748 10.5249 70.3142 10.219L72.4497 10.3109C72.4497 9.67972 72.4393 9.08908 72.4196 8.539C72.3988 7.98931 72.3683 7.32759 72.3278 6.55385C73.0396 6.26877 73.7414 5.96862 74.4328 5.65264C75.1242 5.33704 75.8159 5.00599 76.5077 4.65948L76.8129 4.8731C76.772 5.19952 76.7365 5.58156 76.706 6.01923C76.6755 6.45728 76.645 6.91503 76.6142 7.39365C76.5841 7.87226 76.5633 8.36131 76.5536 8.85962C76.5428 9.3591 76.5382 9.83269 76.5382 10.2804L79.2231 10.219C79.1621 10.5249 79.1316 10.7996 79.1316 11.0441Z" fill="white"></path>
<path d="M81.5415 6.79797C81.5006 5.12842 81.4393 3.43724 81.3586 1.72675C81.6225 1.76808 81.9578 1.80323 82.3652 1.83375C82.7719 1.86465 83.1994 1.87933 83.6465 1.87933C84.0937 1.87933 84.5212 1.86465 84.9282 1.83375C85.3349 1.80323 85.6701 1.76808 85.9348 1.72675C85.8534 3.43724 85.7924 5.12842 85.7519 6.79797C85.711 8.4679 85.691 10.3009 85.691 12.2964L85.7519 12.3575C86.2809 11.5022 86.9267 10.8409 87.6895 10.3723C88.4522 9.90374 89.3219 9.66965 90.298 9.66965C91.8235 9.66965 92.9983 10.1123 93.822 10.9981C94.6453 11.8843 95.0578 13.3151 95.0578 15.2902C95.0578 16.3289 95.0369 17.2456 94.9968 18.0394C94.9555 18.834 94.9355 19.6282 94.9355 20.4224C94.9355 21.0745 94.9509 21.7818 94.9814 22.5455C95.0119 23.3092 95.0474 24.0474 95.0879 24.7605C94.824 24.7191 94.4883 24.6991 94.0813 24.6991H91.5183C91.1117 24.6991 90.776 24.7191 90.5117 24.7605C90.6537 23.7017 90.7451 22.4539 90.786 21.0181C90.8269 19.5823 90.8474 17.9378 90.8474 16.0848C90.8474 14.8015 90.6286 13.8597 90.1915 13.2587C89.7536 12.6584 89.1386 12.3575 88.3454 12.3575C87.4302 12.3575 86.7589 12.755 86.3318 13.5488C85.9043 14.3434 85.691 15.4428 85.691 16.8481V18.0699C85.691 18.3554 85.6956 18.768 85.7064 19.3072C85.716 19.8473 85.7315 20.4379 85.7519 21.0791C85.772 21.7208 85.7978 22.3724 85.8283 23.0345C85.8588 23.6963 85.8943 24.2714 85.9348 24.7605C85.6701 24.7191 85.3349 24.6991 84.9282 24.6991H82.3652C81.9578 24.6991 81.6225 24.7191 81.3586 24.7605C81.4393 23.1106 81.5006 21.4511 81.5415 19.7808C81.582 18.1113 81.6025 16.2783 81.6025 14.2823V12.2964C81.6025 10.3009 81.582 8.4679 81.5415 6.79797Z" fill="white"></path>
<path d="M102.197 17.3982C102.197 18.4369 102.217 19.4656 102.259 20.4835C102.299 21.5022 102.34 22.5301 102.381 23.5692C102.767 23.6098 103.225 23.6453 103.753 23.6758C104.282 23.7063 104.821 23.7218 105.371 23.7218C106.021 23.7218 106.647 23.6098 107.247 23.3857C107.847 23.1617 108.371 22.831 108.818 22.3926C109.265 21.9549 109.621 21.4152 109.886 20.774C110.15 20.132 110.283 19.4042 110.283 18.5895C110.283 17.7142 110.125 16.9961 109.81 16.436C109.494 15.8758 109.042 15.4382 108.452 15.1222C107.862 14.8066 107.156 14.5876 106.332 14.4655C105.508 14.3434 104.587 14.2824 103.57 14.2824H102.197V17.3982ZM103.845 13.1521C104.557 13.1521 105.264 13.0806 105.966 12.9381C106.667 12.7956 107.293 12.5564 107.842 12.2204C108.391 11.8843 108.834 11.4366 109.169 10.8761C109.505 10.316 109.672 9.60828 109.672 8.75303C109.672 7.91825 109.52 7.25113 109.215 6.75204C108.91 6.25334 108.523 5.86628 108.056 5.59124C107.587 5.31659 107.059 5.1331 106.469 5.04116C105.879 4.95 105.289 4.90403 104.699 4.90403C104.17 4.90403 103.723 4.91909 103.357 4.95C102.991 4.98051 102.665 5.01605 102.381 5.05661C102.34 6.03432 102.299 7.00159 102.259 7.95843C102.217 8.91643 102.197 9.88332 102.197 10.861V13.1521H103.845ZM99.6956 11.6552C99.6956 10.3109 99.6698 8.98751 99.6192 7.68378C99.5683 6.38043 99.5128 5.07709 99.4514 3.77374C99.9804 3.81469 100.519 3.84984 101.069 3.88075C101.618 3.91126 102.157 3.92671 102.686 3.92671C103.214 3.92671 103.753 3.90083 104.303 3.84984C104.852 3.79924 105.391 3.77374 105.92 3.77374C106.794 3.77374 107.618 3.84018 108.391 3.97191C109.164 4.10479 109.845 4.3385 110.436 4.67457C111.025 5.01065 111.493 5.46454 111.839 6.03432C112.184 6.60487 112.358 7.31719 112.358 8.17243C112.358 9.67974 111.884 10.861 110.939 11.7163C109.993 12.5715 108.757 13.1726 107.232 13.5183V13.5797C109.042 13.6612 110.471 14.0989 111.519 14.8931C112.566 15.6873 113.09 16.9605 113.09 18.7116C113.09 19.8527 112.855 20.8095 112.388 21.5833C111.92 22.3574 111.31 22.984 110.557 23.4618C109.805 23.9408 108.976 24.2769 108.071 24.47C107.165 24.664 106.265 24.7605 105.371 24.7605C104.883 24.7605 104.389 24.7497 103.891 24.7296C103.393 24.7095 102.899 24.6991 102.411 24.6991H100.931C100.433 24.6991 99.9395 24.7192 99.4514 24.7605C99.5128 23.4572 99.5683 22.1589 99.6192 20.8652C99.6698 19.5723 99.6956 18.2535 99.6956 16.9096V11.6552Z" fill="white"></path>
<path d="M124.058 12.4189C123.763 12.3173 123.462 12.2663 123.158 12.2663C122.67 12.2663 122.232 12.378 121.846 12.602C121.459 12.8265 121.133 13.1266 120.869 13.5036C120.605 13.8803 120.401 14.328 120.259 14.8475C120.117 15.3667 120.046 15.9218 120.046 16.5121V19.8728C120.046 21.2372 120.05 22.2813 120.061 23.0037C120.071 23.7268 120.107 24.3124 120.168 24.7605C119.761 24.7192 119.354 24.6991 118.947 24.6991C118.499 24.6991 118.072 24.7192 117.666 24.7605C117.727 24.0679 117.762 23.1257 117.773 21.9344C117.783 20.7431 117.788 19.2821 117.788 17.5508V16.5735C117.788 15.7789 117.783 14.8626 117.773 13.8242C117.762 12.7855 117.727 11.5942 117.666 10.2499C117.889 10.2908 118.103 10.3264 118.306 10.3569C118.509 10.387 118.723 10.4025 118.947 10.4025C119.13 10.4025 119.323 10.387 119.527 10.3569C119.73 10.3264 119.943 10.2908 120.168 10.2499C120.086 10.9831 120.04 11.5637 120.03 11.9909C120.02 12.4189 120.015 12.8265 120.015 13.2131L120.076 13.2436C121.276 11.0441 122.619 9.94434 124.103 9.94434C124.286 9.94434 124.444 9.95515 124.576 9.97485C124.709 9.99533 124.877 10.0463 125.08 10.1278C124.978 10.3723 124.917 10.744 124.897 11.243C124.877 11.7417 124.866 12.1949 124.866 12.602L124.652 12.755C124.551 12.6329 124.352 12.5209 124.058 12.4189Z" fill="white"></path>
<path d="M128.619 15.9623C128.619 15.046 128.604 14.0834 128.573 13.0756C128.543 12.0674 128.476 11.126 128.375 10.2499C128.944 10.3518 129.402 10.4024 129.748 10.4024C130.094 10.4024 130.551 10.3518 131.121 10.2499C131.019 11.126 130.953 12.0674 130.923 13.0756C130.892 14.0834 130.877 15.046 130.877 15.9623V19.1392C130.877 20.0558 130.892 21.0181 130.923 22.0259C130.953 23.0345 131.019 23.9458 131.121 24.7605C130.653 24.7191 130.195 24.6991 129.748 24.6991C129.3 24.6991 128.842 24.7191 128.375 24.7605C128.476 23.9458 128.543 23.0345 128.573 22.0259C128.604 21.0181 128.619 20.0558 128.619 19.1392V15.9623ZM128.192 4.9345C128.192 4.50649 128.344 4.1399 128.649 3.83473C128.955 3.52917 129.321 3.37659 129.748 3.37659C130.175 3.37659 130.541 3.52917 130.846 3.83473C131.151 4.1399 131.304 4.50649 131.304 4.9345C131.304 5.36212 131.151 5.72871 130.846 6.03427C130.541 6.33982 130.175 6.49241 129.748 6.49241C129.321 6.49241 128.955 6.33982 128.649 6.03427C128.344 5.72871 128.192 5.36212 128.192 4.9345Z" fill="white"></path>
<path d="M142.104 10.9217C141.352 10.9217 140.716 11.0951 140.198 11.4412C139.679 11.7877 139.252 12.2204 138.916 12.7395C138.581 13.2587 138.326 13.8293 138.154 14.4504C137.98 15.0716 137.873 15.6568 137.833 16.2069C138.463 16.2274 139.119 16.2478 139.801 16.2679C140.482 16.2884 141.148 16.2984 141.8 16.2984C142.47 16.2984 143.152 16.2884 143.844 16.2679C144.535 16.2478 145.206 16.2274 145.858 16.2069C145.858 15.6568 145.811 15.0762 145.72 14.4655C145.629 13.8544 145.445 13.285 145.171 12.755C144.896 12.2254 144.515 11.7877 144.027 11.4412C143.538 11.0951 142.898 10.9217 142.104 10.9217ZM135.057 17.9788C135.057 15.4737 135.652 13.5086 136.842 12.0828C138.032 10.6574 139.765 9.94434 142.044 9.94434C143.121 9.94434 144.052 10.1124 144.835 10.4484C145.618 10.7845 146.274 11.2326 146.803 11.7924C147.332 12.3529 147.723 13.0096 147.978 13.7628C148.232 14.5165 148.359 15.3207 148.359 16.1764C148.359 16.3799 148.354 16.5785 148.344 16.772C148.333 16.9656 148.318 17.1641 148.297 17.3677C147.2 17.3476 146.111 17.3271 145.033 17.3066C143.955 17.2866 142.867 17.2761 141.769 17.2761C141.098 17.2761 140.431 17.2866 139.771 17.3066C139.109 17.3271 138.443 17.3476 137.772 17.3677C137.752 17.4697 137.742 17.6226 137.742 17.8258V18.2229C137.742 19.0171 137.858 19.7608 138.092 20.453C138.326 21.1456 138.667 21.7413 139.114 22.24C139.562 22.7394 140.111 23.1365 140.762 23.4313C141.413 23.7268 142.166 23.8744 143.02 23.8744C143.427 23.8744 143.844 23.8184 144.271 23.7063C144.698 23.5947 145.114 23.4417 145.521 23.2482C145.928 23.055 146.31 22.8256 146.666 22.5606C147.021 22.2964 147.332 22.0109 147.597 21.7053L147.749 21.7973L147.566 23.2938C146.955 23.7828 146.198 24.2004 145.293 24.5465C144.388 24.8922 143.447 25.0657 142.47 25.0657C141.372 25.0657 140.37 24.8976 139.465 24.562C138.56 24.2259 137.777 23.7372 137.116 23.0952C136.455 22.454 135.946 21.6957 135.591 20.8196C135.234 19.9442 135.057 18.9974 135.057 17.9788Z" fill="white"></path>
<path d="M156.353 3.80383C155.905 3.80383 155.524 3.89113 155.209 4.0638C154.893 4.23686 154.634 4.46129 154.431 4.73595C154.227 5.0106 154.08 5.33161 153.989 5.69781C153.897 6.0644 153.851 6.45185 153.851 6.859C153.851 7.22559 153.886 7.75519 153.958 8.44781C154.029 9.14005 154.115 9.80215 154.217 10.433C154.746 10.433 155.27 10.4283 155.788 10.4179C156.307 10.4079 156.83 10.4024 157.36 10.4024C157.339 10.5048 157.324 10.6064 157.314 10.7084C157.304 10.8104 157.299 10.912 157.299 11.0136C157.299 11.1155 157.304 11.2171 157.314 11.3191C157.324 11.4211 157.339 11.5227 157.36 11.6243C156.83 11.6042 156.307 11.5841 155.788 11.5636C155.27 11.5435 154.746 11.5327 154.217 11.5327C154.217 13.7527 154.222 15.9577 154.233 18.1468C154.243 20.3363 154.278 22.5405 154.339 24.7605C154.115 24.7191 153.891 24.6991 153.668 24.6991H153.027C152.6 24.6991 152.152 24.7191 151.685 24.7605C151.827 22.5405 151.908 20.346 151.929 18.1773C151.949 16.0083 151.959 13.7933 151.959 11.5327C151.593 11.5327 151.227 11.5435 150.861 11.5636C150.495 11.5841 150.129 11.6042 149.762 11.6243C149.783 11.5227 149.798 11.4211 149.809 11.3191C149.818 11.2171 149.823 11.1155 149.823 11.0136C149.823 10.912 149.818 10.8104 149.809 10.7084C149.798 10.6064 149.783 10.5048 149.762 10.4024C150.129 10.4024 150.499 10.4079 150.877 10.4179C151.252 10.4283 151.614 10.433 151.959 10.433C151.959 9.84271 152.021 9.20147 152.142 8.50846C152.264 7.81661 152.442 7.13365 152.676 6.46189C152.91 5.78975 153.19 5.15353 153.515 4.55246C153.841 3.95216 154.207 3.44805 154.614 3.04052C154.98 2.67393 155.442 2.34867 156.002 2.06282C156.561 1.77773 157.136 1.63519 157.726 1.63519C157.949 1.63519 158.153 1.66571 158.336 1.72674C158.315 2.13467 158.29 2.54182 158.26 2.94858C158.229 3.3565 158.214 3.76365 158.214 4.1708L158.03 4.26235C157.543 3.95719 156.983 3.80383 156.353 3.80383Z" fill="white"></path>
<path d="M160.838 15.9623C160.838 15.046 160.823 14.0834 160.792 13.0756C160.762 12.0674 160.695 11.126 160.594 10.2499C161.163 10.3518 161.621 10.4024 161.967 10.4024C162.313 10.4024 162.77 10.3518 163.34 10.2499C163.238 11.126 163.172 12.0674 163.141 13.0756C163.111 14.0834 163.096 15.046 163.096 15.9623V19.1392C163.096 20.0558 163.111 21.0181 163.141 22.0259C163.172 23.0345 163.238 23.9458 163.34 24.7605C162.872 24.7191 162.414 24.6991 161.967 24.6991C161.519 24.6991 161.061 24.7191 160.594 24.7605C160.695 23.9458 160.762 23.0345 160.792 22.0259C160.823 21.0181 160.838 20.0558 160.838 19.1392V15.9623ZM160.411 4.9345C160.411 4.50649 160.563 4.1399 160.868 3.83473C161.173 3.52917 161.539 3.37659 161.967 3.37659C162.394 3.37659 162.76 3.52917 163.065 3.83473C163.37 4.1399 163.523 4.50649 163.523 4.9345C163.523 5.36212 163.37 5.72871 163.065 6.03427C162.76 6.33982 162.394 6.49241 161.967 6.49241C161.539 6.49241 161.173 6.33982 160.868 6.03427C160.563 5.72871 160.411 5.36212 160.411 4.9345Z" fill="white"></path>
<path d="M177.588 12.709C176.998 11.9252 176.185 11.5328 175.147 11.5328C173.723 11.5328 172.681 11.9712 172.02 12.8465C171.359 13.7226 171.028 14.9541 171.028 16.543V19.1392C171.028 20.0559 171.044 21.0181 171.074 22.026C171.105 23.0346 171.17 23.9458 171.272 24.7605C170.804 24.7192 170.346 24.6991 169.899 24.6991C169.452 24.6991 168.994 24.7192 168.526 24.7605C168.628 23.9458 168.694 23.0346 168.725 22.026C168.755 21.0181 168.77 20.0559 168.77 19.1392V15.9624C168.77 15.0461 168.755 14.0834 168.725 13.0756C168.694 12.0674 168.628 11.126 168.526 10.2499C169.096 10.3519 169.554 10.4025 169.899 10.4025C170.062 10.4025 170.24 10.387 170.433 10.3569C170.626 10.3264 170.855 10.2908 171.12 10.2499C171.059 11.0646 171.028 11.8797 171.028 12.6936H171.089C171.659 11.8182 172.34 11.1411 173.134 10.6625C173.926 10.1838 174.873 9.94434 175.972 9.94434C176.541 9.94434 177.116 10.0258 177.695 10.1889C178.274 10.3519 178.798 10.6315 179.266 11.029C179.734 11.4258 180.115 11.9658 180.41 12.6476C180.705 13.3302 180.853 14.2009 180.853 15.2597C180.853 16.1358 180.832 17.037 180.792 17.9633C180.75 18.8901 180.731 19.8728 180.731 20.9111V22.8967C180.731 23.2227 180.736 23.5437 180.746 23.8593C180.756 24.1753 180.771 24.4754 180.792 24.7605C180.384 24.7192 179.958 24.6991 179.51 24.6991C179.084 24.6991 178.666 24.7192 178.259 24.7605C178.3 23.7017 178.345 22.6116 178.397 21.4913C178.448 20.3719 178.473 19.2211 178.473 18.0394V16.1764C178.473 14.649 178.178 13.4932 177.588 12.709Z" fill="white"></path>
<path d="M193.881 14.771C193.881 13.4882 193.576 12.5105 192.966 11.8383C192.356 11.1662 191.551 10.8305 190.555 10.8305C189.457 10.8305 188.602 11.2021 187.992 11.9449C187.382 12.6889 187.077 13.6817 187.077 14.9236C187.077 16.2069 187.357 17.2197 187.916 17.9633C188.475 18.707 189.345 19.0782 190.525 19.0782C191.114 19.0782 191.618 18.9611 192.035 18.7267C192.452 18.4933 192.798 18.1773 193.072 17.7802C193.346 17.3827 193.55 16.9246 193.682 16.4054C193.815 15.8863 193.881 15.3412 193.881 14.771ZM195.528 27.9984C195.528 26.7766 195.172 25.9213 194.46 25.4323C193.748 24.9436 192.569 24.6991 190.921 24.6991C189.396 24.6991 188.216 24.9483 187.382 25.4477C186.548 25.9464 186.131 26.8476 186.131 28.151C186.131 28.8432 186.248 29.4342 186.482 29.9229C186.716 30.4116 187.031 30.8091 187.428 31.1142C187.825 31.4198 188.297 31.6438 188.847 31.7864C189.396 31.9289 189.985 32.0004 190.617 32.0004C191.227 32.0004 191.827 31.9185 192.416 31.7559C193.006 31.5924 193.53 31.3483 193.987 31.0227C194.446 30.6966 194.816 30.2841 195.101 29.7858C195.386 29.2863 195.528 28.6902 195.528 27.9984ZM184.698 14.9236C184.698 14.0684 184.85 13.3302 185.155 12.709C185.459 12.0879 185.882 11.5737 186.421 11.1662C186.96 10.7594 187.581 10.4535 188.283 10.2499C188.984 10.0463 189.731 9.94434 190.525 9.94434C190.911 9.94434 191.282 9.95515 191.638 9.97485C191.994 9.99533 192.447 10.0258 192.996 10.0664C193.464 10.1077 193.881 10.1383 194.246 10.1583C194.613 10.1788 194.908 10.1889 195.132 10.1889C196.271 10.1889 197.095 10.1383 197.603 10.0359C197.583 10.1383 197.568 10.2449 197.557 10.3569C197.547 10.4689 197.542 10.5759 197.542 10.6775C197.542 10.7795 197.547 10.8865 197.557 10.9981C197.568 11.1105 197.583 11.2172 197.603 11.3191C197.013 11.2786 196.439 11.2326 195.879 11.1816C195.319 11.131 194.766 11.0951 194.216 11.0746L194.155 11.1357C194.786 11.4822 195.294 12.0168 195.681 12.7395C196.067 13.4627 196.26 14.2113 196.26 14.985C196.26 16.512 195.746 17.7092 194.72 18.5741C193.693 19.4401 192.314 19.8728 190.586 19.8728C190.301 19.8728 190.021 19.8623 189.747 19.8419C189.472 19.8222 189.192 19.8114 188.908 19.8114C188.542 19.8114 188.201 19.9442 187.886 20.2085C187.57 20.4735 187.413 20.8095 187.413 21.2167C187.413 21.7467 187.539 22.1334 187.794 22.3775C188.048 22.622 188.521 22.7545 189.213 22.7746C189.783 22.7951 190.342 22.8105 190.891 22.8206C191.44 22.831 191.999 22.8461 192.569 22.8665C193.505 22.887 194.303 22.999 194.964 23.2026C195.625 23.4062 196.164 23.6808 196.581 24.0273C196.997 24.3738 197.302 24.7702 197.496 25.2187C197.689 25.6664 197.786 26.155 197.786 26.685C197.786 27.3973 197.649 28.1205 197.375 28.8536C197.1 29.5868 196.673 30.2485 196.093 30.8396C195.513 31.4298 194.766 31.9185 193.85 32.3055C192.935 32.6922 191.837 32.8861 190.555 32.8861C188.582 32.8861 187.026 32.4933 185.887 31.7103C184.748 30.9257 184.179 29.8514 184.179 28.4871C184.179 27.9571 184.275 27.4684 184.469 27.0211C184.662 26.5726 184.911 26.1755 185.216 25.8294C185.521 25.4829 185.867 25.2078 186.253 25.0047C186.64 24.8007 187.036 24.6485 187.443 24.5465V24.4851C186.812 24.302 186.334 23.9964 186.009 23.5692C185.684 23.1412 185.521 22.6324 185.521 22.0414C185.521 21.6957 185.587 21.3801 185.719 21.0946C185.852 20.8095 186.02 20.5554 186.223 20.3305C186.426 20.1069 186.66 19.9238 186.924 19.7808C187.189 19.6387 187.443 19.5467 187.687 19.5062V19.4448C186.751 19.0376 186.02 18.4628 185.49 17.7188C184.961 16.9756 184.698 16.0439 184.698 14.9236Z" fill="white"></path>
<path d="M3.64021 30.6275C3.72857 30.612 3.82695 30.6016 3.93536 30.5977C4.04378 30.5935 4.14216 30.5916 4.23013 30.5916C4.43114 30.5916 4.6117 30.6035 4.77258 30.6275L7.20515 37.1635L8.33751 30.6275C8.41738 30.6198 8.4957 30.612 8.57209 30.6035C8.64809 30.5958 8.7268 30.5916 8.80705 30.5916H9.09603L9.48146 30.6275L7.96366 39.2974C7.87569 39.3136 7.78117 39.3237 7.68124 39.3279C7.58016 39.3318 7.48216 39.3337 7.38571 39.3337C7.29736 39.3337 7.20707 39.3318 7.11486 39.3279C7.02227 39.3237 6.93237 39.3136 6.84364 39.2974L4.39873 32.798L3.2787 39.2974C3.11821 39.3213 2.96157 39.3337 2.80917 39.3337H2.50785L2.1228 39.2974L3.64021 30.6275Z" fill="white"></path>
<path d="M12.0703 35.825C12.48 35.7524 12.8192 35.6701 13.0881 35.5774C13.357 35.4855 13.5719 35.3843 13.7328 35.2761C13.8929 35.1676 14.0056 35.0532 14.07 34.9323C14.1336 34.8118 14.1664 34.6789 14.1664 34.5344C14.1664 34.3498 14.1016 34.1991 13.9735 34.0825C13.8447 33.9658 13.6603 33.9075 13.4195 33.9075C13.1622 33.9075 12.9257 33.9658 12.7088 34.0825C12.492 34.1991 12.2976 34.3517 12.1251 34.5406C11.9519 34.7291 11.8053 34.9462 11.6849 35.1919C11.5649 35.4372 11.4723 35.6883 11.4083 35.9455L12.0703 35.825ZM11.3118 36.8375C11.3357 37.376 11.4723 37.7824 11.7211 38.0555C11.97 38.329 12.3554 38.4653 12.8778 38.4653C13.1984 38.4653 13.5036 38.4275 13.7926 38.351C14.0819 38.2745 14.3428 38.1922 14.5758 38.1037C14.6479 38.2243 14.7 38.3691 14.732 38.5379C14.7641 38.7067 14.7803 38.8756 14.7803 39.0444C14.6599 39.1004 14.5133 39.1529 14.3408 39.2008C14.168 39.2491 13.9874 39.2916 13.7991 39.3279C13.6101 39.3638 13.4195 39.3916 13.2266 39.4121C13.0341 39.4322 12.8574 39.4422 12.6969 39.4422C12.2231 39.4422 11.8238 39.3801 11.4985 39.2553C11.1733 39.1309 10.9082 38.9578 10.7038 38.7369C10.4989 38.5155 10.35 38.2548 10.2581 37.9531C10.1655 37.6518 10.1196 37.3238 10.1196 36.9704C10.1196 36.4802 10.2014 35.9958 10.3662 35.5171C10.5309 35.0389 10.7678 34.6109 11.0768 34.2331C11.3859 33.8553 11.7551 33.5498 12.1849 33.3165C12.6143 33.0835 13.0943 32.9669 13.624 32.9669C14.1541 32.9669 14.5735 33.0974 14.8825 33.3586C15.1919 33.6201 15.3463 33.9677 15.3463 34.4019C15.3463 34.7558 15.2602 35.0629 15.0878 35.3244C14.9149 35.5859 14.6761 35.8088 14.3709 35.9938C14.0657 36.1785 13.7066 36.3311 13.293 36.4516C12.8794 36.5721 12.4276 36.6687 11.938 36.7409L11.3118 36.8375Z" fill="white"></path>
<path d="M16.3706 33.1117C16.4825 33.0955 16.5913 33.0835 16.6955 33.075C16.7996 33.0673 16.9084 33.0634 17.0207 33.0634C17.2534 33.0634 17.4621 33.0796 17.6469 33.1117L18.1164 37.9106L20.0436 33.1117C20.1315 33.0955 20.228 33.0835 20.3329 33.075C20.4371 33.0673 20.5332 33.0634 20.6219 33.0634C20.7261 33.0634 20.8264 33.0673 20.9228 33.075C21.0193 33.0835 21.1154 33.0955 21.2118 33.1117L21.8017 37.923L23.3072 34.2694C23.4036 34.0361 23.47 33.8287 23.5059 33.6483C23.5425 33.4675 23.5607 33.3249 23.5607 33.2199V33.1117C23.6567 33.0955 23.7551 33.0835 23.8554 33.075C23.9557 33.0673 24.0618 33.0634 24.1745 33.0634C24.4318 33.0634 24.6525 33.0796 24.8369 33.1117V33.16C24.8369 33.3365 24.803 33.5235 24.7347 33.7205C24.6664 33.9175 24.5599 34.1647 24.4156 34.4618L22.1756 39.2974C22.0706 39.3136 21.9607 39.326 21.8442 39.3337C21.7276 39.3414 21.6131 39.3457 21.5008 39.3457C21.4047 39.3457 21.304 39.3414 21.1995 39.3337C21.0953 39.326 20.9988 39.3136 20.9109 39.2974L20.3086 34.8477L18.4779 39.2974C18.3734 39.3136 18.263 39.326 18.1469 39.3337C18.0304 39.3414 17.9197 39.3457 17.8155 39.3457C17.719 39.3457 17.6168 39.3414 17.5084 39.3337C17.4 39.326 17.3016 39.3136 17.2132 39.2974L16.3706 33.1117Z" fill="white"></path>
<path d="M26.8478 36.3913C26.7274 36.3434 26.599 36.2828 26.4624 36.2105C26.3262 36.1379 26.2016 36.046 26.0893 35.9332C25.9766 35.8208 25.8821 35.6782 25.8061 35.5052C25.7297 35.3321 25.6919 35.1254 25.6919 34.884C25.6919 34.587 25.7521 34.3196 25.8725 34.0825C25.9929 33.8453 26.1615 33.6444 26.3783 33.4795C26.5951 33.3145 26.8536 33.1882 27.1549 33.0994C27.4559 33.0113 27.7911 32.9669 28.1607 32.9669C28.4898 32.9669 28.8031 33.0028 29.1002 33.075C29.3969 33.1476 29.6299 33.2284 29.7985 33.3165C29.7341 33.6301 29.618 33.9318 29.4494 34.2211C29.3128 34.1566 29.1241 34.0902 28.8834 34.0218C28.6422 33.9538 28.3853 33.9194 28.1125 33.9194C27.7672 33.9194 27.4802 33.9797 27.2514 34.1006C27.0226 34.2211 26.9084 34.4301 26.9084 34.7272C26.9084 34.9122 26.9624 35.0671 27.0704 35.1919C27.1792 35.3167 27.3737 35.4353 27.6546 35.5473L27.9196 35.6678C28.0724 35.7404 28.231 35.8165 28.3957 35.8973C28.5601 35.9776 28.7086 36.0761 28.8409 36.1928C28.9737 36.3094 29.0821 36.4497 29.1666 36.6146C29.2507 36.7795 29.2927 36.9823 29.2927 37.2234C29.2927 37.6093 29.2206 37.9411 29.0759 38.2185C28.9316 38.4954 28.7329 38.7249 28.4798 38.9057C28.2271 39.0865 27.9339 39.2213 27.6005 39.3097C27.2672 39.3982 26.9084 39.4422 26.523 39.4422C26.2016 39.4422 25.8864 39.414 25.5773 39.358C25.2679 39.3016 25.0133 39.2294 24.8123 39.1409C24.8285 38.964 24.8586 38.7952 24.9029 38.6341C24.9469 38.4738 25.0133 38.3208 25.1016 38.176C25.3103 38.2648 25.5549 38.3351 25.8362 38.3873C26.1171 38.4394 26.3783 38.4653 26.619 38.4653C26.8197 38.4653 27.0087 38.4472 27.185 38.4112C27.3613 38.3753 27.5145 38.3189 27.643 38.2424C27.7711 38.1663 27.8733 38.0636 27.9501 37.9349C28.0261 37.8063 28.0643 37.6452 28.0643 37.4529C28.0643 37.2033 27.9918 37.0167 27.8475 36.8916C27.7028 36.7672 27.4983 36.6528 27.2332 36.5482L26.8478 36.3913Z" fill="white"></path>
<path d="M34.8449 30.6275C34.9491 30.6121 35.0537 30.5997 35.1578 30.5916C35.262 30.5835 35.367 30.5792 35.4711 30.5792C35.5834 30.5792 35.6899 30.5835 35.7902 30.5916C35.8905 30.5997 35.9889 30.6121 36.0853 30.6275L34.5679 39.2974C34.4553 39.3136 34.3492 39.326 34.2485 39.3337C34.1482 39.3415 34.0421 39.3457 33.9294 39.3457C33.8171 39.3457 33.7106 39.3415 33.6103 39.3337C33.51 39.326 33.4155 39.3136 33.3271 39.2974L34.8449 30.6275Z" fill="white"></path>
<path d="M37.3861 35.7161C37.474 35.2336 37.5443 34.8199 37.5967 34.4742C37.6492 34.1288 37.6754 33.8271 37.6754 33.5699C37.6754 33.4652 37.6731 33.3829 37.6689 33.3226C37.665 33.2624 37.655 33.1882 37.6388 33.0994C37.7271 33.0835 37.8236 33.0712 37.9282 33.0634C38.0323 33.0557 38.1284 33.0511 38.2171 33.0511C38.297 33.0511 38.3877 33.0557 38.488 33.0634C38.5883 33.0712 38.6786 33.0835 38.7588 33.0994C38.775 33.1639 38.787 33.238 38.7951 33.3226C38.8032 33.4068 38.807 33.5177 38.807 33.6541C38.807 33.807 38.797 33.9515 38.7769 34.0883C38.7569 34.225 38.7349 34.3575 38.7106 34.4861C38.7912 34.3177 38.9035 34.1423 39.0482 33.9616C39.1925 33.7808 39.3611 33.6181 39.554 33.4733C39.7465 33.3288 39.9614 33.2079 40.1983 33.1117C40.4348 33.0151 40.6863 32.9669 40.951 32.9669C41.4325 32.9669 41.8079 33.0955 42.0772 33.3528C42.3461 33.61 42.4808 34.0079 42.4808 34.5464C42.4808 34.6673 42.4723 34.8017 42.4565 34.9505C42.4403 35.0996 42.4202 35.2421 42.3963 35.3785L41.7099 39.2974C41.6135 39.3136 41.5093 39.326 41.3966 39.3337C41.284 39.3414 41.1837 39.3457 41.0957 39.3457C41.007 39.3457 40.909 39.3414 40.8002 39.3337C40.6921 39.326 40.5976 39.3136 40.5174 39.2974L41.1678 35.5836C41.1921 35.455 41.2099 35.3302 41.2222 35.2097C41.2338 35.0891 41.2404 34.9848 41.2404 34.896C41.2404 34.5746 41.1655 34.3459 41.017 34.2088C40.8684 34.072 40.6698 34.004 40.4213 34.004C40.2045 34.004 39.9915 34.0701 39.7828 34.203C39.574 34.3355 39.3773 34.5306 39.1925 34.7878C39.008 35.0447 38.8414 35.3626 38.6928 35.7404C38.5439 36.1182 38.4259 36.5524 38.3375 37.0426L37.9401 39.2974C37.844 39.3136 37.7391 39.326 37.6272 39.3337C37.5146 39.3414 37.4142 39.3457 37.3259 39.3457C37.2375 39.3457 37.1392 39.3414 37.0307 39.3337C36.9227 39.326 36.8282 39.3136 36.7476 39.2974L37.3861 35.7161Z" fill="white"></path>
<path d="M45.1784 36.3913C45.0576 36.3434 44.9291 36.2828 44.793 36.2105C44.656 36.1379 44.5318 36.046 44.4199 35.9332C44.3072 35.8208 44.2127 35.6782 44.1367 35.5052C44.0603 35.3321 44.0221 35.1254 44.0221 34.884C44.0221 34.587 44.0827 34.3196 44.203 34.0825C44.3234 33.8453 44.4912 33.6444 44.7085 33.4795C44.9253 33.3145 45.1842 33.1882 45.4851 33.0994C45.7864 33.0113 46.1217 32.9669 46.4913 32.9669C46.82 32.9669 47.1333 33.0028 47.4308 33.075C47.7275 33.1476 47.9601 33.2284 48.1287 33.3165C48.0647 33.6301 47.9485 33.9318 47.7799 34.2211C47.643 34.1566 47.4547 34.0902 47.2139 34.0218C46.9728 33.9538 46.7159 33.9194 46.4431 33.9194C46.0978 33.9194 45.8107 33.9797 45.5816 34.1006C45.3528 34.2211 45.2386 34.4301 45.2386 34.7272C45.2386 34.9122 45.2926 35.0671 45.401 35.1919C45.509 35.3167 45.7039 35.4353 45.9851 35.5473L46.2502 35.6678C46.4026 35.7404 46.5615 35.8165 46.7263 35.8973C46.8902 35.9776 47.0388 36.0761 47.1715 36.1928C47.3038 36.3094 47.4126 36.4497 47.4967 36.6146C47.5812 36.7795 47.6229 36.9823 47.6229 37.2234C47.6229 37.6093 47.5511 37.9411 47.4065 38.2185C47.2622 38.4954 47.0631 38.7249 46.8104 38.9057C46.5577 39.0865 46.2641 39.2213 45.9311 39.3097C45.5978 39.3982 45.2386 39.4422 44.8531 39.4422C44.5318 39.4422 44.2165 39.414 43.9075 39.358C43.5985 39.3016 43.3434 39.2294 43.1428 39.1409C43.159 38.964 43.1891 38.7952 43.2335 38.6341C43.2771 38.4738 43.3434 38.3208 43.4322 38.176C43.6405 38.2648 43.8851 38.3351 44.1668 38.3873C44.4473 38.4394 44.7085 38.4653 44.9492 38.4653C45.1498 38.4653 45.3385 38.4472 45.5156 38.4112C45.6919 38.3753 45.8447 38.3189 45.9735 38.2424C46.1016 38.1663 46.2039 38.0636 46.2803 37.9349C46.3563 37.8063 46.3949 37.6452 46.3949 37.4529C46.3949 37.2033 46.3223 37.0167 46.178 36.8916C46.0333 36.7672 45.8289 36.6528 45.5638 36.5482L45.1784 36.3913Z" fill="white"></path>
<path d="M49.984 31.8335C49.984 31.6006 50.0041 31.3796 50.0438 31.1706C50.0843 30.9613 50.1364 30.7484 50.2008 30.5313C50.3127 30.5155 50.4335 30.5031 50.562 30.495C50.6904 30.4869 50.8027 30.483 50.8992 30.483C50.9952 30.483 51.106 30.4869 51.2302 30.495C51.3548 30.5031 51.4694 30.5155 51.5736 30.5313C51.5655 30.7646 51.5415 30.9875 51.5014 31.2008C51.4613 31.4132 51.4088 31.6245 51.3448 31.8335C51.2321 31.8497 51.1117 31.8598 50.9837 31.8636C50.8552 31.8679 50.7425 31.8694 50.6461 31.8694C50.5577 31.8694 50.4493 31.8679 50.3212 31.8636C50.1923 31.8598 50.0805 31.8497 49.984 31.8335ZM49.996 34.0643H49.249C49.249 33.9036 49.2591 33.7468 49.2795 33.5938C49.2996 33.4412 49.3412 33.2805 49.4057 33.1117H51.3328L50.2491 39.2974C50.1603 39.3136 50.0581 39.3237 49.9416 39.3279C49.825 39.3318 49.7228 39.3337 49.6345 39.3337C49.5461 39.3337 49.4539 39.3318 49.3574 39.3279C49.2614 39.3237 49.1688 39.3136 49.0808 39.2974L49.996 34.0643Z" fill="white"></path>
<path d="M56.7402 34.04C56.5473 33.9917 56.3304 33.9677 56.0897 33.9677C55.6881 33.9677 55.3269 34.0601 55.0059 34.2451C54.6846 34.4301 54.4114 34.677 54.1868 34.9868C53.9619 35.2962 53.7871 35.6458 53.6629 36.0356C53.5383 36.4257 53.4762 36.8255 53.4762 37.2358C53.4762 37.6213 53.5487 37.921 53.693 38.1343C53.8373 38.3467 54.0422 38.4537 54.3072 38.4537C54.5638 38.4537 54.8068 38.373 55.036 38.2123C55.2644 38.0516 55.4735 37.8306 55.6622 37.5494C55.8505 37.2678 56.0152 36.936 56.156 36.5543C56.2965 36.1727 56.4111 35.7605 56.499 35.3182L56.7402 34.04ZM56.1136 37.8986C56.0256 38.0756 55.9091 38.2548 55.7644 38.4356C55.6201 38.616 55.4516 38.7809 55.2586 38.9296C55.0661 39.0784 54.8508 39.2008 54.6147 39.2974C54.3774 39.394 54.1224 39.4422 53.8496 39.4422C53.3195 39.4422 52.9202 39.2673 52.6513 38.9177C52.3824 38.5677 52.2477 38.0918 52.2477 37.4888C52.2477 36.9182 52.3361 36.3616 52.5128 35.8185C52.6891 35.2761 52.9503 34.7936 53.2956 34.3718C53.6405 33.9496 54.0703 33.61 54.5842 33.3528C55.0978 33.0955 55.6962 32.9669 56.3787 32.9669C56.6676 32.9669 56.9628 32.9893 57.2641 33.0333C57.565 33.0777 57.8278 33.1399 58.0527 33.2199C57.8683 34.2331 57.6893 35.2379 57.5168 36.2345C57.344 37.2315 57.1657 38.2366 56.9809 39.2491C56.8845 39.7961 56.7236 40.2581 56.499 40.6363C56.2745 41.0137 55.9971 41.3216 55.6684 41.5583C55.3389 41.7955 54.9654 41.9682 54.5484 42.0771C54.1305 42.1853 53.681 42.2401 53.1992 42.2401C52.926 42.2401 52.6532 42.2158 52.3801 42.1675C52.1069 42.1192 51.8824 42.059 51.7061 41.9867C51.7138 41.641 51.8021 41.3192 51.9707 41.0218C52.1312 41.062 52.3199 41.1045 52.5367 41.1489C52.7535 41.1925 52.9904 41.2145 53.2474 41.2145C53.6085 41.2145 53.9295 41.1786 54.2108 41.1064C54.4916 41.0342 54.7409 40.9132 54.9577 40.7444C55.1745 40.5756 55.357 40.3547 55.5056 40.0816C55.6541 39.8077 55.7722 39.4662 55.8609 39.0567L56.1136 37.8986Z" fill="white"></path>
<path d="M59.9798 32.9429C60.06 32.4925 60.1241 32.1051 60.1723 31.7794C60.2205 31.4538 60.2444 31.1625 60.2444 30.9052C60.2444 30.8087 60.2425 30.7322 60.2387 30.6758C60.2344 30.6198 60.2286 30.5475 60.2205 30.4587C60.3089 30.4428 60.4173 30.4309 60.5458 30.4228C60.6739 30.4147 60.7827 30.4104 60.871 30.4104C60.9513 30.4104 61.0412 30.4147 61.1419 30.4228C61.2426 30.4309 61.3325 30.4428 61.4131 30.4587C61.437 30.6035 61.449 30.7523 61.449 30.9052C61.449 30.9933 61.4432 31.1003 61.4308 31.2247C61.4189 31.3495 61.4046 31.4797 61.3892 31.6164C61.3726 31.7531 61.3525 31.8938 61.3286 32.0386C61.3043 32.1831 61.2804 32.3198 61.2564 32.4485C61.2001 32.722 61.148 32.9931 61.0998 33.2624C61.0516 33.5316 61.0033 33.8028 60.9555 34.0763C61.1801 33.7789 61.469 33.5216 61.822 33.3045C62.1755 33.0874 62.5771 32.9788 63.0266 32.9788C63.5162 32.9788 63.9 33.1079 64.1767 33.3648C64.4541 33.622 64.5926 34.0199 64.5926 34.5584C64.5926 34.6789 64.5841 34.8118 64.5687 34.9567C64.5521 35.1011 64.532 35.246 64.5081 35.3908L63.8217 39.2974C63.733 39.3136 63.6307 39.3237 63.5146 39.3279C63.3977 39.3318 63.2955 39.3337 63.2075 39.3337C63.1192 39.3337 63.0208 39.3318 62.9124 39.3279C62.8039 39.3237 62.7094 39.3136 62.6296 39.2974C62.7414 38.6708 62.8502 38.0516 62.9544 37.4405C63.0586 36.8298 63.1674 36.2106 63.2797 35.5836C63.2955 35.4631 63.3117 35.3426 63.3275 35.222C63.3437 35.1011 63.3518 34.9972 63.3518 34.9084C63.3518 34.6028 63.2696 34.3776 63.1049 34.2331C62.9405 34.0883 62.7299 34.016 62.4725 34.016C62.2881 34.016 62.0994 34.0562 61.9065 34.1366C61.714 34.2169 61.5311 34.3556 61.3587 34.5526C61.1858 34.7496 61.0277 35.015 60.883 35.3484C60.7387 35.6821 60.6222 36.102 60.5334 36.6084C60.4455 37.067 60.3629 37.517 60.2869 37.9589C60.2105 38.4016 60.1322 38.8474 60.0523 39.2974C59.9397 39.3136 59.8231 39.3237 59.7028 39.3279C59.5824 39.3318 59.4655 39.3337 59.3536 39.3337C59.3131 39.3337 59.2409 39.3318 59.1368 39.3279C59.0318 39.3237 58.94 39.3136 58.8594 39.2974L59.9798 32.9429Z" fill="white"></path>
<path d="M66.772 34.0643H65.7966C65.7966 33.9036 65.809 33.7487 65.8329 33.6C65.8568 33.4513 65.9008 33.2882 65.9652 33.1117H66.9286C66.9687 32.9023 67.005 32.6895 67.037 32.4724C67.0694 32.2557 67.0853 32.0305 67.0853 31.7972V31.6044C67.2458 31.5241 67.4387 31.4642 67.6632 31.4236C67.8881 31.3834 68.0807 31.363 68.2415 31.363C68.2493 31.4356 68.255 31.5078 68.2597 31.5801C68.2635 31.6527 68.2655 31.7288 68.2655 31.8095C68.2655 32.0587 68.2334 32.3681 68.1694 32.7378L68.0969 33.1117H69.6505C69.6505 33.2882 69.6382 33.4513 69.6143 33.6C69.5904 33.7487 69.5502 33.9036 69.4943 34.0643H67.9526L67.483 36.681C67.4425 36.8657 67.4063 37.0565 67.3742 37.2535C67.3422 37.4505 67.326 37.6298 67.326 37.7901C67.326 38.0311 67.3885 38.1984 67.5127 38.2907C67.6374 38.3834 67.8036 38.4294 68.0124 38.4294C68.1489 38.4294 68.2736 38.4193 68.3862 38.3989C68.4981 38.3792 68.6108 38.3533 68.7234 38.3208C68.7473 38.4016 68.7674 38.4896 68.7832 38.5862C68.7994 38.6824 68.8075 38.7871 68.8075 38.8995V39.0745C68.8075 39.1348 68.8033 39.1969 68.7956 39.2615C68.691 39.2935 68.5548 39.3237 68.3862 39.3519C68.2176 39.3801 68.0367 39.394 67.8441 39.394C67.5872 39.394 67.3518 39.3762 67.1393 39.3399C66.9267 39.3036 66.7438 39.2356 66.5914 39.1348C66.439 39.0343 66.3206 38.8976 66.2361 38.7249C66.152 38.5522 66.1099 38.3247 66.1099 38.0435C66.1099 37.8909 66.1238 37.7283 66.152 37.5552C66.1801 37.3825 66.2098 37.2033 66.2422 37.0187L66.772 34.0643Z" fill="white"></path>
<path d="M74.275 30.6275C74.3795 30.6121 74.4837 30.5997 74.5879 30.5916C74.6924 30.5835 74.797 30.5792 74.9012 30.5792C75.0138 30.5792 75.1199 30.5835 75.2202 30.5916C75.3209 30.5997 75.4193 30.6121 75.5158 30.6275L73.998 39.2974C73.8853 39.3136 73.7792 39.326 73.6789 39.3337C73.5786 39.3415 73.4721 39.3457 73.3598 39.3457C73.2472 39.3457 73.1411 39.3415 73.0408 39.3337C72.9401 39.326 72.8459 39.3136 72.7576 39.2974L74.275 30.6275Z" fill="white"></path>
<path d="M76.8159 35.7161C76.9042 35.2336 76.9744 34.8199 77.0269 34.4742C77.079 34.1288 77.1052 33.8271 77.1052 33.5699C77.1052 33.4652 77.1029 33.3829 77.0991 33.3226C77.0952 33.2624 77.0848 33.1882 77.069 33.0994C77.1569 33.0835 77.2534 33.0712 77.3579 33.0634C77.4625 33.0557 77.5586 33.0511 77.6469 33.0511C77.7272 33.0511 77.8174 33.0557 77.9181 33.0634C78.0185 33.0712 78.1084 33.0835 78.189 33.0994C78.2048 33.1639 78.2172 33.238 78.2249 33.3226C78.2334 33.4068 78.2372 33.5177 78.2372 33.6541C78.2372 33.807 78.2268 33.9515 78.2067 34.0883C78.1871 34.225 78.1651 34.3575 78.1408 34.4861C78.221 34.3177 78.3337 34.1423 78.4783 33.9616C78.6226 33.7808 78.7912 33.6181 78.9838 33.4733C79.1763 33.3288 79.3912 33.2079 79.6281 33.1117C79.865 33.0151 80.1161 32.9669 80.3808 32.9669C80.8627 32.9669 81.2377 33.0955 81.507 33.3528C81.7759 33.61 81.9106 34.0079 81.9106 34.5464C81.9106 34.6673 81.9025 34.8017 81.8863 34.9505C81.8701 35.0996 81.8504 35.2421 81.8265 35.3785L81.1397 39.2974C81.0433 39.3136 80.9391 39.326 80.8264 39.3337C80.7141 39.3414 80.6138 39.3457 80.5255 39.3457C80.4367 39.3457 80.3387 39.3414 80.2303 39.3337C80.1219 39.326 80.0274 39.3136 79.9471 39.2974L80.5976 35.5836C80.6219 35.455 80.6401 35.3302 80.652 35.2097C80.664 35.0891 80.6702 34.9848 80.6702 34.896C80.6702 34.5746 80.5957 34.3459 80.4472 34.2088C80.2986 34.072 80.0995 34.004 79.8511 34.004C79.6343 34.004 79.4213 34.0701 79.2129 34.203C79.0038 34.3355 78.8071 34.5306 78.6226 34.7878C78.4378 35.0447 78.2712 35.3626 78.1226 35.7404C77.9741 36.1182 77.8556 36.5524 77.7673 37.0426L77.3699 39.2974C77.2738 39.3136 77.1693 39.326 77.057 39.3337C76.9444 39.3414 76.844 39.3457 76.7561 39.3457C76.6673 39.3457 76.5689 39.3414 76.4609 39.3337C76.3525 39.326 76.258 39.3136 76.1777 39.2974L76.8159 35.7161Z" fill="white"></path>
<path d="M84.0906 34.0643H83.1152C83.1152 33.9036 83.1272 33.7487 83.1511 33.6C83.175 33.4513 83.2194 33.2882 83.2838 33.1117H84.2468C84.2873 32.9023 84.3232 32.6895 84.3556 32.4724C84.3877 32.2557 84.4039 32.0305 84.4039 31.7972V31.6044C84.564 31.5241 84.7569 31.4642 84.9818 31.4236C85.2067 31.3834 85.3993 31.363 85.5598 31.363C85.5679 31.4356 85.5736 31.5078 85.5779 31.5801C85.5817 31.6527 85.5837 31.7288 85.5837 31.8095C85.5837 32.0587 85.5517 32.3681 85.4876 32.7378L85.4151 33.1117H86.9688C86.9688 33.2882 86.9568 33.4513 86.9329 33.6C86.909 33.7487 86.8684 33.9036 86.8125 34.0643H85.2708L84.8012 36.681C84.7607 36.8657 84.7249 37.0565 84.6928 37.2535C84.6604 37.4505 84.6446 37.6298 84.6446 37.7901C84.6446 38.0311 84.7067 38.1984 84.831 38.2907C84.9556 38.3834 85.1219 38.4294 85.331 38.4294C85.4675 38.4294 85.5922 38.4193 85.7044 38.3989C85.8167 38.3792 85.9294 38.3533 86.0416 38.3208C86.0656 38.4016 86.0856 38.4896 86.1018 38.5862C86.1176 38.6824 86.1261 38.7871 86.1261 38.8995V39.0745C86.1261 39.1348 86.1219 39.1969 86.1138 39.2615C86.0096 39.2935 85.873 39.3237 85.7044 39.3519C85.5358 39.3801 85.3553 39.394 85.1624 39.394C84.9054 39.394 84.6705 39.3762 84.4579 39.3399C84.2449 39.3036 84.0624 39.2356 83.9096 39.1348C83.7572 39.0343 83.6388 38.8976 83.5547 38.7249C83.4702 38.5522 83.4285 38.3247 83.4285 38.0435C83.4285 37.8909 83.442 37.7283 83.4702 37.5552C83.4983 37.3825 83.5284 37.2033 83.5605 37.0187L84.0906 34.0643Z" fill="white"></path>
<path d="M89.2451 35.825C89.6549 35.7524 89.994 35.6701 90.2629 35.5774C90.5318 35.4855 90.7467 35.3843 90.9076 35.2761C91.0677 35.1676 91.1804 35.0532 91.2448 34.9323C91.3085 34.8118 91.3412 34.6789 91.3412 34.5344C91.3412 34.3498 91.2764 34.1991 91.1483 34.0825C91.0195 33.9658 90.8351 33.9075 90.5943 33.9075C90.337 33.9075 90.1001 33.9658 89.8832 34.0825C89.6668 34.1991 89.4724 34.3517 89.2995 34.5406C89.1267 34.7291 88.9801 34.9462 88.8597 35.1919C88.7393 35.4372 88.6471 35.6883 88.5831 35.9455L89.2451 35.825ZM88.4866 36.8375C88.5105 37.376 88.6471 37.7824 88.896 38.0555C89.1448 38.329 89.5302 38.4653 90.0522 38.4653C90.3732 38.4653 90.6784 38.4275 90.9674 38.351C91.2568 38.2745 91.5176 38.1922 91.7502 38.1037C91.8224 38.2243 91.8748 38.3691 91.9069 38.5379C91.9389 38.7067 91.9551 38.8756 91.9551 39.0444C91.8347 39.1004 91.6881 39.1529 91.5156 39.2008C91.3428 39.2491 91.1622 39.2916 90.9736 39.3279C90.7849 39.3638 90.5943 39.3916 90.4014 39.4121C90.2089 39.4322 90.0322 39.4422 89.8717 39.4422C89.3975 39.4422 88.9986 39.3801 88.6733 39.2553C88.3481 39.1309 88.083 38.9578 87.8786 38.7369C87.6733 38.5155 87.5248 38.2548 87.4329 37.9531C87.3403 37.6518 87.2944 37.3238 87.2944 36.9704C87.2944 36.4802 87.3762 35.9958 87.541 35.5171C87.7057 35.0389 87.9426 34.6109 88.2516 34.2331C88.5607 33.8553 88.9299 33.5498 89.3597 33.3165C89.7891 33.0835 90.2687 32.9669 90.7988 32.9669C91.3289 32.9669 91.7483 33.0974 92.0573 33.3586C92.3667 33.6201 92.5211 33.9677 92.5211 34.4019C92.5211 34.7558 92.435 35.0629 92.2622 35.3244C92.0893 35.5859 91.8509 35.8088 91.5457 35.9938C91.2402 36.1785 90.8814 36.3311 90.4678 36.4516C90.0542 36.5721 89.6024 36.6687 89.1128 36.7409L88.4866 36.8375Z" fill="white"></path>
<path d="M94.3277 32.9429C94.4075 32.4925 94.4696 32.1051 94.5136 31.7794C94.558 31.4538 94.5838 31.1625 94.5919 30.9052V30.6758C94.5919 30.6198 94.5881 30.5475 94.5804 30.4587C94.6683 30.4428 94.7748 30.4309 94.8994 30.4228C95.0237 30.4147 95.1301 30.4104 95.2185 30.4104C95.2987 30.4104 95.3886 30.4147 95.4893 30.4228C95.5897 30.4309 95.6838 30.4428 95.7725 30.4587C95.7887 30.5313 95.7961 30.6035 95.7961 30.6758V30.9052C95.7961 30.9933 95.7907 31.1003 95.7783 31.2247C95.7667 31.3495 95.7525 31.4797 95.7363 31.6164C95.7204 31.7531 95.7004 31.8938 95.6761 32.0386C95.6522 32.1831 95.6278 32.3198 95.6039 32.4485L94.6645 37.5371C94.6402 37.6738 94.6286 37.7824 94.6286 37.8623C94.6286 37.9914 94.6467 38.0937 94.6826 38.1702C94.7185 38.2467 94.7648 38.3031 94.8211 38.339C94.8771 38.3753 94.9396 38.3973 95.0078 38.4055C95.0758 38.4132 95.1421 38.417 95.2065 38.417C95.2787 38.417 95.3609 38.4093 95.4535 38.3931C95.5457 38.3773 95.624 38.361 95.688 38.3448C95.7606 38.5542 95.7961 38.803 95.7961 39.0927C95.7961 39.1247 95.7941 39.1552 95.7907 39.1831C95.786 39.2113 95.7845 39.2371 95.7845 39.2615C95.6641 39.3017 95.5179 39.3318 95.3447 39.3519C95.1722 39.372 95.0017 39.382 94.8331 39.382C94.6243 39.382 94.4338 39.3619 94.2609 39.3214C94.0881 39.2816 93.9399 39.2093 93.8153 39.1046C93.6907 39.0003 93.5942 38.8617 93.5267 38.6886C93.458 38.5155 93.4241 38.3008 93.4241 38.0435C93.4241 37.8909 93.4399 37.7298 93.4719 37.561C93.5043 37.3922 93.5363 37.2277 93.5684 37.067L94.3277 32.9429Z" fill="white"></path>
<path d="M97.7843 32.9429C97.8642 32.4925 97.9263 32.1051 97.971 31.7794C98.0146 31.4538 98.0409 31.1625 98.0486 30.9052V30.6758C98.0486 30.6198 98.0447 30.5475 98.0366 30.4587C98.1254 30.4428 98.2311 30.4309 98.3561 30.4228C98.4807 30.4147 98.5864 30.4104 98.6751 30.4104C98.755 30.4104 98.8461 30.4147 98.9464 30.4228C99.0467 30.4309 99.1408 30.4428 99.2296 30.4587C99.245 30.5313 99.2527 30.6035 99.2527 30.6758V30.9052C99.2527 30.9933 99.2473 31.1003 99.235 31.2247C99.223 31.3495 99.2091 31.4797 99.1933 31.6164C99.1767 31.7531 99.1574 31.8938 99.1331 32.0386C99.1088 32.1831 99.0845 32.3198 99.061 32.4485L98.1215 37.5371C98.0972 37.6738 98.0852 37.7824 98.0852 37.8623C98.0852 37.9914 98.1034 38.0937 98.1396 38.1702C98.1755 38.2467 98.2218 38.3031 98.2774 38.339C98.3341 38.3753 98.3958 38.3973 98.4641 38.4055C98.5324 38.4132 98.5991 38.417 98.6632 38.417C98.7353 38.417 98.8179 38.4093 98.9101 38.3931C99.0019 38.3773 99.0803 38.361 99.1447 38.3448C99.2168 38.5542 99.2527 38.803 99.2527 39.0927C99.2527 39.1247 99.2512 39.1552 99.2473 39.1831C99.2427 39.2113 99.2411 39.2371 99.2411 39.2615C99.1204 39.3017 98.9745 39.3318 98.8013 39.3519C98.6289 39.372 98.4587 39.382 98.2901 39.382C98.0806 39.382 97.89 39.3619 97.7176 39.3214C97.5451 39.2816 97.3962 39.2093 97.2723 39.1046C97.1477 39.0003 97.0513 38.8617 96.983 38.6886C96.9147 38.5155 96.8811 38.3008 96.8811 38.0435C96.8811 37.8909 96.8965 37.7298 96.9289 37.561C96.961 37.3922 96.993 37.2277 97.0254 37.067L97.7843 32.9429Z" fill="white"></path>
<path d="M101.433 31.8335C101.433 31.6006 101.453 31.3796 101.493 31.1706C101.534 30.9613 101.586 30.7484 101.65 30.5313C101.762 30.5155 101.883 30.5031 102.011 30.495C102.14 30.4869 102.252 30.483 102.348 30.483C102.445 30.483 102.556 30.4869 102.679 30.495C102.804 30.5031 102.919 30.5155 103.023 30.5313C103.015 30.7646 102.99 30.9875 102.951 31.2008C102.911 31.4132 102.858 31.6245 102.794 31.8335C102.682 31.8497 102.561 31.8598 102.433 31.8636C102.304 31.8679 102.192 31.8694 102.095 31.8694C102.007 31.8694 101.898 31.8679 101.77 31.8636C101.642 31.8598 101.53 31.8497 101.433 31.8335ZM101.445 34.0643H100.699C100.699 33.9036 100.708 33.7468 100.728 33.5938C100.749 33.4412 100.79 33.2805 100.855 33.1117H102.782L101.698 39.2974C101.61 39.3136 101.507 39.3237 101.391 39.3279C101.274 39.3318 101.172 39.3337 101.084 39.3337C100.995 39.3337 100.903 39.3318 100.807 39.3279C100.711 39.3237 100.618 39.3136 100.53 39.2974L101.445 34.0643Z" fill="white"></path>
<path d="M108.19 34.04C107.997 33.9917 107.78 33.9677 107.539 33.9677C107.137 33.9677 106.776 34.0601 106.455 34.2451C106.134 34.4301 105.861 34.677 105.636 34.9868C105.411 35.2962 105.237 35.6458 105.112 36.0356C104.988 36.4257 104.926 36.8255 104.926 37.2358C104.926 37.6213 104.998 37.921 105.142 38.1343C105.287 38.3467 105.492 38.4537 105.757 38.4537C106.013 38.4537 106.256 38.373 106.485 38.2123C106.714 38.0516 106.923 37.8306 107.112 37.5494C107.3 37.2678 107.465 36.936 107.606 36.5543C107.746 36.1727 107.86 35.7605 107.948 35.3182L108.19 34.04ZM107.563 37.8986C107.475 38.0756 107.358 38.2548 107.213 38.4356C107.07 38.616 106.901 38.7809 106.708 38.9296C106.516 39.0784 106.3 39.2008 106.064 39.2974C105.826 39.394 105.572 39.4422 105.299 39.4422C104.769 39.4422 104.37 39.2673 104.101 38.9177C103.832 38.5677 103.697 38.0918 103.697 37.4888C103.697 36.9182 103.785 36.3616 103.962 35.8185C104.138 35.2761 104.4 34.7936 104.745 34.3718C105.09 33.9496 105.52 33.61 106.034 33.3528C106.547 33.0955 107.146 32.9669 107.828 32.9669C108.117 32.9669 108.413 32.9893 108.713 33.0333C109.015 33.0777 109.277 33.1399 109.502 33.2199C109.317 34.2331 109.139 35.2379 108.966 36.2345C108.794 37.2315 108.615 38.2366 108.431 39.2491C108.334 39.7961 108.173 40.2581 107.948 40.6363C107.724 41.0137 107.446 41.3216 107.118 41.5583C106.789 41.7955 106.415 41.9682 105.997 42.0771C105.579 42.1853 105.13 42.2401 104.649 42.2401C104.375 42.2401 104.102 42.2158 103.829 42.1675C103.557 42.1192 103.332 42.059 103.155 41.9867C103.163 41.641 103.251 41.3192 103.42 41.0218C103.581 41.062 103.769 41.1045 103.986 41.1489C104.203 41.1925 104.439 41.2145 104.697 41.2145C105.058 41.2145 105.379 41.1786 105.66 41.1064C105.941 41.0342 106.19 40.9132 106.407 40.7444C106.624 40.5756 106.807 40.3547 106.955 40.0816C107.104 39.8077 107.222 39.4662 107.31 39.0567L107.563 37.8986Z" fill="white"></path>
<path d="M112.332 35.825C112.741 35.7524 113.081 35.6701 113.35 35.5774C113.619 35.4855 113.834 35.3843 113.995 35.2761C114.154 35.1676 114.267 35.0532 114.332 34.9323C114.395 34.8118 114.428 34.6789 114.428 34.5344C114.428 34.3498 114.363 34.1991 114.235 34.0825C114.106 33.9658 113.922 33.9075 113.681 33.9075C113.424 33.9075 113.187 33.9658 112.971 34.0825C112.753 34.1991 112.559 34.3517 112.386 34.5406C112.214 34.7291 112.067 34.9462 111.946 35.1919C111.826 35.4372 111.734 35.6883 111.67 35.9455L112.332 35.825ZM111.573 36.8375C111.597 37.376 111.734 37.7824 111.982 38.0555C112.232 38.329 112.617 38.4653 113.139 38.4653C113.46 38.4653 113.765 38.4275 114.054 38.351C114.343 38.2745 114.604 38.1922 114.838 38.1037C114.909 38.2243 114.961 38.3691 114.993 38.5379C115.025 38.7067 115.042 38.8756 115.042 39.0444C114.921 39.1004 114.775 39.1529 114.602 39.2008C114.43 39.2491 114.249 39.2916 114.06 39.3279C113.871 39.3638 113.681 39.3916 113.488 39.4121C113.296 39.4322 113.119 39.4422 112.959 39.4422C112.484 39.4422 112.085 39.3801 111.76 39.2553C111.435 39.1309 111.17 38.9578 110.965 38.7369C110.76 38.5155 110.612 38.2548 110.519 37.9531C110.427 37.6518 110.381 37.3238 110.381 36.9704C110.381 36.4802 110.463 35.9958 110.627 35.5171C110.792 35.0389 111.029 34.6109 111.339 34.2331C111.648 33.8553 112.017 33.5498 112.447 33.3165C112.876 33.0835 113.355 32.9669 113.885 32.9669C114.415 32.9669 114.835 33.0974 115.144 33.3586C115.454 33.6201 115.608 33.9677 115.608 34.4019C115.608 34.7558 115.522 35.0629 115.349 35.3244C115.176 35.5859 114.938 35.8088 114.633 35.9938C114.327 36.1785 113.968 36.3311 113.555 36.4516C113.141 36.5721 112.689 36.6687 112.2 36.7409L111.573 36.8375Z" fill="white"></path>
<path d="M117.041 35.7161C117.129 35.2336 117.199 34.8199 117.252 34.4742C117.304 34.1288 117.33 33.8271 117.33 33.5699C117.33 33.4652 117.328 33.3829 117.324 33.3226C117.32 33.2624 117.31 33.1882 117.294 33.0994C117.382 33.0835 117.478 33.0712 117.584 33.0634C117.688 33.0557 117.783 33.0511 117.872 33.0511C117.952 33.0511 118.043 33.0557 118.143 33.0634C118.244 33.0712 118.334 33.0835 118.414 33.0994C118.43 33.1639 118.442 33.238 118.45 33.3226C118.459 33.4068 118.462 33.5177 118.462 33.6541C118.462 33.807 118.452 33.9515 118.432 34.0883C118.412 34.225 118.39 34.3575 118.366 34.4861C118.446 34.3177 118.559 34.1423 118.703 33.9616C118.848 33.7808 119.016 33.6181 119.209 33.4733C119.402 33.3288 119.616 33.2079 119.853 33.1117C120.09 33.0151 120.341 32.9669 120.606 32.9669C121.088 32.9669 121.463 33.0955 121.732 33.3528C122.001 33.61 122.136 34.0079 122.136 34.5464C122.136 34.6673 122.127 34.8017 122.112 34.9505C122.095 35.0996 122.076 35.2421 122.051 35.3785L121.365 39.2974C121.268 39.3136 121.164 39.326 121.052 39.3337C120.939 39.3414 120.839 39.3457 120.75 39.3457C120.662 39.3457 120.564 39.3414 120.456 39.3337C120.348 39.326 120.253 39.3136 120.172 39.2974L120.822 35.5836C120.847 35.455 120.865 35.3302 120.877 35.2097C120.889 35.0891 120.895 34.9848 120.895 34.896C120.895 34.5746 120.821 34.3459 120.672 34.2088C120.524 34.072 120.325 34.004 120.076 34.004C119.86 34.004 119.647 34.0701 119.438 34.203C119.229 34.3355 119.032 34.5306 118.848 34.7878C118.663 35.0447 118.496 35.3626 118.348 35.7404C118.199 36.1182 118.081 36.5524 117.993 37.0426L117.595 39.2974C117.499 39.3136 117.395 39.326 117.282 39.3337C117.17 39.3414 117.069 39.3457 116.981 39.3457C116.893 39.3457 116.794 39.3414 116.686 39.3337C116.577 39.326 116.483 39.3136 116.403 39.2974L117.041 35.7161Z" fill="white"></path>
<path d="M127.326 38.2123C127.391 38.3247 127.441 38.4595 127.477 38.616C127.513 38.7732 127.531 38.952 127.531 39.1529C127.298 39.2491 127.029 39.3213 126.724 39.3696C126.419 39.4179 126.142 39.4422 125.893 39.4422C125.01 39.4422 124.36 39.2251 123.942 38.7913C123.524 38.3572 123.316 37.7503 123.316 36.9704C123.316 36.4879 123.394 36.0077 123.55 35.5291C123.707 35.0513 123.94 34.621 124.249 34.2389C124.558 33.8573 124.936 33.5498 125.381 33.3165C125.826 33.0835 126.338 32.9669 126.917 32.9669C127.181 32.9669 127.435 32.9908 127.675 33.0391C127.916 33.0874 128.125 33.1438 128.302 33.2079C128.294 33.3609 128.262 33.5274 128.205 33.7081C128.149 33.8893 128.077 34.0481 127.989 34.1848C127.828 34.1203 127.654 34.0662 127.465 34.0218C127.276 33.9782 127.077 33.9558 126.869 33.9558C126.475 33.9558 126.134 34.0419 125.845 34.215C125.556 34.3876 125.315 34.6128 125.122 34.8902C124.929 35.1676 124.787 35.4789 124.695 35.825C124.603 36.1704 124.556 36.5122 124.556 36.8499C124.556 37.3965 124.69 37.8005 124.96 38.0616C125.229 38.3228 125.6 38.4537 126.073 38.4537C126.283 38.4537 126.489 38.4356 126.694 38.3989C126.899 38.3629 127.109 38.3008 127.326 38.2123Z" fill="white"></path>
<path d="M130.782 35.825C131.193 35.7524 131.531 35.6701 131.8 35.5774C132.069 35.4855 132.284 35.3843 132.445 35.2761C132.606 35.1676 132.718 35.0532 132.782 34.9323C132.846 34.8118 132.879 34.6789 132.879 34.5344C132.879 34.3498 132.814 34.1991 132.686 34.0825C132.557 33.9658 132.373 33.9075 132.132 33.9075C131.875 33.9075 131.638 33.9658 131.421 34.0825C131.205 34.1991 131.01 34.3517 130.838 34.5406C130.664 34.7291 130.518 34.9462 130.398 35.1919C130.277 35.4372 130.184 35.6883 130.121 35.9455L130.782 35.825ZM130.024 36.8375C130.048 37.376 130.184 37.7824 130.434 38.0555C130.682 38.329 131.068 38.4653 131.59 38.4653C131.911 38.4653 132.216 38.4275 132.505 38.351C132.794 38.2745 133.055 38.1922 133.288 38.1037C133.36 38.2243 133.413 38.3691 133.445 38.5379C133.477 38.7067 133.492 38.8756 133.492 39.0444C133.372 39.1004 133.226 39.1529 133.053 39.2008C132.88 39.2491 132.7 39.2916 132.512 39.3279C132.323 39.3638 132.132 39.3916 131.939 39.4121C131.746 39.4322 131.57 39.4422 131.409 39.4422C130.936 39.4422 130.536 39.3801 130.211 39.2553C129.885 39.1309 129.621 38.9578 129.416 38.7369C129.211 38.5155 129.063 38.2548 128.971 37.9531C128.878 37.6518 128.832 37.3238 128.832 36.9704C128.832 36.4802 128.914 35.9958 129.079 35.5171C129.243 35.0389 129.48 34.6109 129.789 34.2331C130.098 33.8553 130.467 33.5498 130.897 33.3165C131.327 33.0835 131.807 32.9669 132.337 32.9669C132.867 32.9669 133.286 33.0974 133.595 33.3586C133.904 33.6201 134.058 33.9677 134.058 34.4019C134.058 34.7558 133.972 35.0629 133.8 35.3244C133.627 35.5859 133.388 35.8088 133.083 35.9938C132.778 36.1785 132.419 36.3311 132.005 36.4516C131.592 36.5721 131.14 36.6687 130.65 36.7409L130.024 36.8375Z" fill="white"></path>
</svg>