<svg xmlns="http://www.w3.org/2000/svg" viewBox="0 0 640 360" width="640" height="360" role="img" aria-label="The content model: four document types, six languages, nine markets">
  <rect width="640" height="360" fill="#FBFAF7"/>
  <g font-family="Newsreader, Georgia, serif" font-size="14" fill="#12100E">
    <rect x="56" y="44" width="120" height="56" fill="#FFFFFF" stroke="#12100E" stroke-width="1.5"/>
    <text x="72" y="70">Insight</text>
    <rect x="196" y="44" width="120" height="56" fill="#FFFFFF" stroke="#12100E" stroke-width="1.5"/>
    <text x="212" y="70">Person</text>
    <rect x="336" y="44" width="120" height="56" fill="#FFFFFF" stroke="#12100E" stroke-width="1.5"/>
    <text x="352" y="70">Service</text>
    <rect x="476" y="44" width="108" height="56" fill="#FFFFFF" stroke="#12100E" stroke-width="1.5"/>
    <text x="492" y="70">Page</text>
  </g>
  <g font-family="Archivo, Helvetica, sans-serif" font-size="9.5" letter-spacing="1" fill="#6B6459">
    <text x="72" y="88">FROM PASSLE</text>
    <text x="212" y="88">AUTHOR MATCH</text>
    <text x="352" y="88">PER MARKET</text>
    <text x="492" y="88">THE TREE</text>
  </g>
  <g stroke="#C9C2B6" stroke-width="1">
    <path d="M116 100 V 132" fill="none"/><path d="M256 100 V 132" fill="none"/>
    <path d="M396 100 V 132" fill="none"/><path d="M530 100 V 132" fill="none"/>
    <path d="M116 132 H 530" fill="none"/><path d="M320 132 V 160" fill="none"/>
  </g>
  <rect x="160" y="160" width="320" height="56" fill="#1F4B43"/>
  <text x="186" y="186" font-family="Newsreader, Georgia, serif" font-size="15" fill="#FBFAF7">One document, two independent axes</text>
  <text x="186" y="204" font-family="Archivo, Helvetica, sans-serif" font-size="9.5" letter-spacing="1.2" fill="#BFD4CE">LANGUAGE AND MARKET</text>
  <g font-family="Archivo, Helvetica, sans-serif" font-size="9.5" letter-spacing="1.2" fill="#6B6459">
    <text x="56" y="256">SIX LANGUAGES</text>
    <text x="56" y="300">NINE MARKETS</text>
  </g>
  <g font-family="'IBM Plex Mono', ui-monospace, monospace" font-size="11.5" fill="#12100E">
    <text x="56" y="274">en  fr  ja  ko  zh-hans  zh-hant</text>
    <text x="56" y="318">UK  France  Japan  Korea  Greater China  Canada  USA  …</text>
  </g>
</svg>
